<?xml version="1.0" encoding="utf-8"?>
<!-- Generator: Adobe Illustrator 21.0.0, SVG Export Plug-In . SVG Version: 6.00 Build 0)  -->
<svg version="1.1" id="Laag_1" xmlns="http://www.w3.org/2000/svg" xmlns:xlink="http://www.w3.org/1999/xlink" x="0px" y="0px"
	 viewBox="0 0 1000 196.2" style="enable-background:new 0 0 1000 196.2;" xml:space="preserve">
<style type="text/css">
	.st0{fill:#FFFFFF;}
</style>
<g>
	<path class="st0" d="M98.5,156.6c20.8,0,37.8-8.2,51-24.7l27.1,27.9c-21.5,24.2-46.9,36.4-76.1,36.4s-53.3-9.2-72.2-27.7
		C9.5,150.1,0,126.8,0,98.6C0,70.5,9.6,47,28.9,28.2S71.7,0,99.6,0c31.1,0,57.2,11.8,78.2,35.6l-26.3,29.8c-13.4-16.6-30-25-49.9-25
		C85.6,40.4,72,45.6,60.7,56s-17,24.4-17,42.1c0,17.6,5.3,31.8,16,42.5C70.4,151.2,83.3,156.6,98.5,156.6z"/>
	<path class="st0" d="M343.8,194l-17.6-41h-79.5L229,194H184l82-189.7h41l82,189.7H343.8z M286.6,60.8l-23.9,55.1h47.5L286.6,60.8z"
		/>
	<path class="st0" d="M564.7,67.3c0,30.4-12,50-36.1,58.9l48,67.8h-52.1l-42.1-60.5h-29.3V194h-42.3V4.3h71.9
		c29.5,0,50.5,5,63.1,14.9C558.4,29.2,564.7,45.2,564.7,67.3z M513.7,89.8c5.2-4.7,7.9-12.2,7.9-22.4c0-10.2-2.7-17.2-8.1-21
		c-5.4-3.8-14.9-5.7-28.5-5.7h-31.8v56.2h30.9C498.6,96.9,508.4,94.5,513.7,89.8z"/>
	<path class="st0" d="M731.4,97.4h42.6v67.3c-18.8,21-44.9,31.5-78.1,31.5c-27.9,0-51.3-9.2-70.2-27.7
		c-18.9-18.5-28.4-41.7-28.4-69.9c0-28.1,9.6-51.6,28.9-70.4S668.7,0,695.9,0c27.2,0,50.9,9,70.9,26.9l-22,31.8
		c-8.5-7.4-16.3-12.5-23.5-15.3s-14.9-4.2-23.2-4.2c-16.1,0-29.7,5.5-40.7,16.4c-11,10.9-16.5,25.4-16.5,43.3s5.3,32.3,15.9,43
		c10.6,10.8,23.2,16.1,37.9,16.1c14.7,0,26.9-2.8,36.7-8.4V97.4z"/>
	<path class="st0" d="M971.2,167.8c-19.2,18.7-42.8,28.1-70.8,28.1s-51.7-9.4-70.8-28.1c-19.2-18.7-28.8-42-28.8-69.9
		s9.6-51.1,28.8-69.9C848.7,9.4,872.4,0,900.4,0s51.7,9.4,70.8,28.1s28.8,42,28.8,69.9S990.4,149.1,971.2,167.8z M956.8,98.1
		c0-16.9-5.4-31.3-16.3-43.3c-10.9-11.9-24.2-17.9-40-17.9s-29.2,6-40,17.9c-10.9,11.9-16.3,26.4-16.3,43.3
		c0,16.9,5.4,31.3,16.3,43.2c10.8,11.8,24.2,17.8,40,17.8s29.2-5.9,40-17.8C951.4,129.4,956.8,115,956.8,98.1z"/>
</g>
</svg>
