<?xml version="1.0" encoding="utf-8"?>
<!-- Generator: Adobe Illustrator 21.0.0, SVG Export Plug-In . SVG Version: 6.00 Build 0)  -->
<svg version="1.1" id="Laag_1" xmlns="http://www.w3.org/2000/svg" xmlns:xlink="http://www.w3.org/1999/xlink" x="0px" y="0px"
	 viewBox="0 0 100 100" style="enable-background:new 0 0 100 100;" xml:space="preserve">
<style type="text/css">
	.st0{fill:#262626;}
</style>
<g>
	<path class="st0" d="M43,85.9c-23.6,0-42.8-19.2-42.8-42.8S19.5,0.3,43,0.3s42.8,19.2,42.8,42.8S66.6,85.9,43,85.9z M43,19
		c-13.3,0-24.1,10.8-24.1,24.1S29.8,67.2,43,67.2s24.1-10.8,24.1-24.1S56.3,19,43,19z"/>
</g>
<g>
	<path class="st0" d="M90.7,100.1c-2.4,0-4.8-0.9-6.6-2.7L60.3,73.5c-3.6-3.6-3.6-9.6,0-13.2c3.6-3.6,9.5-3.6,13.2,0l23.8,23.8
		c3.6,3.6,3.6,9.6,0,13.2C95.4,99.2,93.1,100.1,90.7,100.1z"/>
</g>
</svg>
