<svg xmlns="http://www.w3.org/2000/svg" width="611.9" height="209.5" viewBox="0 0 611.9 209.5"><path d="M611.9 188.6c0 11.5-7.8 20.9-17.4 20.9h-577c-9.6 0-17.4-9.3-17.4-20.9V20.9C0 9.3 7.8 0 17.4 0h577c9.6 0 17.4 9.3 17.4 20.9v167.7h.1z"/><path d="M134.2 99.4c0-14.7 12-22.1 12.9-22.5-6.9-10.1-18-11.5-21.6-11.5-9.2-.9-18 5.5-22.5 5.5-4.6 0-12-5.5-19.3-5.1-9.6 0-18.9 6-23.9 14.7-10.5 18-2.7 44.6 7.4 59.3 5.1 7.4 11.1 15.2 18.4 14.7 7.4-.5 10.1-4.6 19.3-4.6 8.7 0 11.5 4.6 19.3 4.6s12.9-7.4 18-14.3c6-8.3 8.3-16.1 8.3-16.5-.7-.9-15.9-6.8-16.3-24.3zm-14.8-43.7c4.2-5.1 6.9-12 6-18.9-6 .5-12.9 4.2-17.4 8.7-3.7 4.2-6.9 11.5-6 18 6.8.9 13.3-2.7 17.4-7.8zM242.2 153.2h-10.5l-5.5-18h-19.8l-5.5 18h-10.1L210.6 92h12l19.6 61.2zm-17.4-25.3l-5.1-16.1c-.5-1.8-1.4-5.5-3.2-11.5-.5 2.7-1.4 6.4-2.7 11.5l-5.1 16.1h16.1zm68.4 2.8c0 7.4-1.8 13.3-6 18-3.7 3.7-8.3 6-13.3 6-6 0-10.1-2.3-12.4-6.4v23.4h-9.6v-47.4c0-4.6 0-9.6-.5-14.7h8.7l.5 6.9c3.2-5.1 8.3-7.8 14.7-7.8 5.1 0 9.6 1.8 12.9 6 3.2 3.6 5 9.1 5 16zm-10.1.5c0-4.2-.9-7.8-2.7-10.5-2.3-2.7-5.1-4.2-8.7-4.2-2.3 0-4.6.9-6.4 2.3-1.8 1.8-3.2 3.7-3.7 6.4-.5 1.4-.5 2.3-.5 2.7v7.4c0 3.2.9 6 2.7 8.3 1.8 2.3 4.6 3.2 7.8 3.2 3.7 0 6.4-1.4 8.7-4.2 1.9-3.2 2.8-6.9 2.8-11.4zm60.7-.5c0 7.4-1.8 13.3-6 18-3.7 3.7-8.3 6-13.3 6-6 0-10.1-2.3-12.4-6.4v23.4h-9.6v-47.4c0-4.6 0-9.6-.5-14.7h8.7l.5 6.9c3.2-5.1 8.3-7.8 14.7-7.8 5.1 0 9.6 1.8 12.9 6 3.2 3.6 5 9.1 5 16zm-10.1.5c0-4.2-.9-7.8-2.7-10.5-2.3-2.7-5.1-4.2-8.7-4.2-2.3 0-4.6.9-6.4 2.3-1.8 1.8-3.2 3.7-3.7 6.4-.5 1.4-.5 2.3-.5 2.7v7.4c0 3.2.9 6 2.7 8.3 1.8 2.3 4.6 3.2 7.8 3.2 3.7 0 6.4-1.4 8.7-4.2 1.9-3.2 2.8-6.9 2.8-11.4zm66.6 5c0 5.1-1.8 9.6-5.5 12.9-4.2 3.7-9.6 5.5-16.5 5.5-6.4 0-12-1.4-15.6-3.7l2.3-8.3c4.2 2.7 9.2 4.2 14.3 4.2 3.7 0 6.4-.9 8.7-2.3 1.8-1.8 3.2-3.7 3.2-6.9 0-2.3-.9-4.6-2.7-6.4-1.8-1.8-4.6-3.2-8.3-4.6-10.5-4.2-16.1-9.6-16.1-17.4 0-5.1 1.8-9.2 5.5-12.4 3.7-3.1 8.7-4.6 15.2-4.6 5.5 0 10.1.9 13.8 2.7l-2.3 7.8c-3.7-1.8-7.4-2.7-11.5-2.7-3.7 0-6 .9-8.3 2.7-1.8 1.4-2.3 3.2-2.3 5.5s.9 4.6 2.7 6c1.8 1.4 4.6 3.2 8.7 4.6 5.1 2.3 9.2 4.6 11.5 7.4 2.3 2.2 3.2 5.9 3.2 10zm32.7-19.7h-10.5v21.6c0 5.5 1.8 8.3 5.5 8.3 1.8 0 3.2 0 4.2-.5l.5 7.4c-1.8.9-4.6.9-7.8.9-3.7 0-6.9-1.4-9.2-3.7s-3.2-6.4-3.2-12v-22.1h-6.4V109h6.4v-8.3l9.6-2.7v11H433v7.5zm48.8 14.2c0 6.9-1.8 12.4-6 16.5-4.2 4.6-9.6 6.9-16.1 6.9s-11.5-2.3-15.6-6.4c-3.7-4.2-6-9.6-6-16.1 0-6.9 1.8-12.4 6-17 4.2-4.2 9.2-6.4 16.1-6.4 6.4 0 11.5 2.3 15.6 6.4 4.1 4.1 6 9.7 6 16.1zm-10.2.5c0-4.2-.9-7.4-2.7-10.5-1.8-3.7-5.1-5.1-8.7-5.1-4.2 0-6.9 1.8-9.2 5.1-1.8 2.7-2.7 6.4-2.7 10.5 0 4.2.9 7.4 2.7 10.5 2.3 3.7 5.1 5.1 8.7 5.1 3.7 0 6.9-1.8 8.7-5.5 2.3-2.8 3.2-6 3.2-10.1zm41.9-13.4c-.9 0-1.8-.5-3.2-.5-3.7 0-6 1.4-7.8 4.2-1.8 2.3-2.3 5.1-2.3 8.7v23h-9.6v-30.3c0-5.1 0-9.6-.5-13.8h8.7l.5 8.3h.5c.9-2.7 2.7-5.1 5.1-6.9 2.3-1.4 4.6-2.3 6.9-2.3h2.3c-.6.4-.6 9.6-.6 9.6zm44.1 11.5c0 1.8 0 3.2-.5 4.6h-29.4c0 4.2 1.4 7.8 4.2 10.1 2.3 1.8 5.5 3.2 9.6 3.2s8.3-.9 12-2.3l1.4 6.9c-4.2 1.8-9.2 2.7-14.7 2.7-6.9 0-12.4-1.8-16.1-6-3.8-4.2-6-9.2-6-16.1 0-6.4 1.8-12.4 5.5-16.5 3.7-4.6 8.7-6.9 15.6-6.9 6.4 0 11.1 2.3 14.3 6.9 2.7 2.8 4.1 7.9 4.1 13.4zm-9.6-2.8c0-2.7-.5-5.5-1.8-7.4-1.8-2.7-4.2-4.2-7.8-4.2-3.2 0-6 1.4-7.8 4.2-1.8 2.3-2.7 4.6-2.7 7.8l20.1-.4zM221.5 54.4c0 5.5-1.8 9.6-5.1 12.4-3.2 2.3-7.4 3.7-12.9 3.7-2.7 0-5.1 0-6.9-.5V40.5c2.7-.5 5.5-.5 8.3-.5 5.1 0 9.2.9 12 3.2 2.8 2.9 4.6 6.5 4.6 11.2zm-5.6 0c0-3.7-.9-6-2.7-8.3-1.8-1.8-4.6-2.7-8.3-2.7-1.4 0-2.7 0-3.7.5v22.5h3.2c3.7 0 6.4-.9 8.7-3.2 1.9-1.9 2.8-4.8 2.8-8.8zm32.3 4.5c0 3.2-.9 6-2.7 8.3-1.8 2.3-4.6 3.2-7.8 3.2s-5.5-.9-7.8-3.2c-1.8-2.3-2.7-4.6-2.7-7.8s.9-6 2.7-8.3 4.6-3.2 7.8-3.2 5.5.9 7.8 3.2c1.8 2.4 2.7 4.6 2.7 7.8zm-5.1.6c0-1.8-.5-3.7-1.4-5.1-.9-1.8-2.3-2.7-4.2-2.7s-3.2.9-4.6 2.7c-.9 1.4-1.4 3.2-1.4 5.1s.5 3.7 1.4 5.1c.9 1.8 2.3 2.7 4.6 2.7 1.8 0 3.2-.9 4.2-2.7.9-1.5 1.4-3.3 1.4-5.1zm41.4-11.1L277.6 70H273l-2.7-9.2c-.9-2.3-1.4-4.6-1.8-6.9-.5 2.3-.9 4.6-1.8 6.9L264 70h-4.6L253 48.4h5.1l2.3 10.1c.5 2.3.9 4.6 1.4 6.9.5-1.8.9-4.2 1.8-6.9l3.2-10.1h4.2l2.7 10.1c.9 2.3 1.4 5.1 1.8 7.4.5-2.3.9-4.6 1.4-7.4l2.7-10.1h4.9zM309.3 70h-4.6V57.6c0-3.7-1.4-5.5-4.2-5.5-1.4 0-2.7.5-3.7 1.4-.9.9-1.4 2.3-1.4 3.7v12.9h-4.7V48.5h4.2v3.2c.5-.9 1.4-1.8 2.3-2.7 1.4-.9 2.7-1.4 4.2-1.4 1.8 0 3.7.5 5.1 1.8 1.8 1.4 2.3 4.2 2.3 7.4v13.3h.4V70zm13.3 0H318V38.3h4.6V70zm28.5-11.1c0 3.2-.9 6-2.7 8.3s-4.6 3.2-7.8 3.2-5.5-.9-7.8-3.2c-1.8-2.3-2.7-4.6-2.7-7.8s.9-6 2.7-8.3 4.6-3.2 7.8-3.2 5.5.9 7.8 3.2c1.8 2.4 2.7 4.6 2.7 7.8zm-5 .6c0-1.8-.5-3.7-1.4-5.1-.9-1.8-2.3-2.7-4.2-2.7s-3.2.9-4.6 2.7c-.9 1.4-1.4 3.2-1.4 5.1s.5 3.7 1.4 5.1c.9 1.8 2.3 2.7 4.6 2.7 1.8 0 3.2-.9 4.2-2.7 1-1.5 1.4-3.3 1.4-5.1zM374.2 70H370l-.5-2.3c-1.4 1.8-3.7 2.7-6.4 2.7-1.8 0-3.7-.5-5.1-1.8-.9-1.4-1.8-2.7-1.8-4.6 0-2.7.9-4.6 3.2-6 2.3-1.4 5.5-2.3 9.2-1.8v-.5c0-2.7-1.4-4.2-4.6-4.2-2.3 0-4.2.5-5.5 1.4l-.9-3.2c1.8-1.4 4.6-1.8 7.4-1.8 5.5 0 8.3 3.2 8.3 9.2v7.8c.9 2.4.9 4.2.9 5.1zm-5.1-7.4v-3.2c-5.5 0-7.8 1.4-7.8 4.6 0 .9.5 1.8.9 2.7.5.5 1.4.9 2.3.9.9 0 1.8-.5 2.7-.9.9-.5 1.4-1.4 1.8-2.7.1-.9.1-.9.1-1.4zm32.6 7.4h-4.2v-3.7c-1.4 2.7-3.7 4.2-6.9 4.2-2.7 0-4.6-.9-6.4-3.2-1.8-1.8-2.7-4.6-2.7-7.8 0-3.7.9-6.4 2.7-8.7 1.8-1.8 4.2-3.2 6.9-3.2s5.1.9 6 2.7V37.8h4.6v25.8c-.5 2.7 0 4.6 0 6.4zm-5-9.2v-5.1c-.5-1.4-.9-2.3-1.8-2.7-.9-.9-1.8-1.4-3.2-1.4-1.8 0-3.2.9-4.2 2.3-.9 1.4-1.4 3.2-1.4 5.5s.5 3.7 1.4 5.1c.9 1.4 2.3 2.3 4.2 2.3 1.4 0 2.7-.5 3.7-1.8.9-1 1.3-2.4 1.3-4.2zm45.9-1.9c0 3.2-.9 6-2.7 8.3s-4.6 3.2-7.8 3.2-5.5-.9-7.8-3.2c-1.8-2.3-2.7-4.6-2.7-7.8s.9-6 2.7-8.3c1.8-2.3 4.6-3.2 7.8-3.2s5.5.9 7.8 3.2c1.8 2.4 2.7 4.6 2.7 7.8zm-4.5.6c0-1.8-.5-3.7-1.4-5.1-.9-1.8-2.3-2.7-4.2-2.7s-3.2.9-4.6 2.7c-.9 1.4-1.4 3.2-1.4 5.1s.5 3.7 1.4 5.1c.9 1.8 2.3 2.7 4.6 2.7 1.8 0 3.2-.9 4.2-2.7.9-1.5 1.4-3.3 1.4-5.1zM468.9 70h-4.6V57.6c0-3.7-1.4-5.5-4.6-5.5-1.4 0-2.7.5-3.7 1.4-.9.9-1.4 2.3-1.4 3.7v12.9H450V48.5h4.2v3.2c.5-.9 1.4-1.8 2.3-2.7 1.4-.9 2.7-1.4 4.6-1.4 1.8 0 3.7.5 5.1 1.8 1.8 1.4 2.3 4.2 2.3 7.4v13.3h.3V70zM501 52h-5.5v10.5c0 2.7.9 4.2 2.7 4.2h2.3v3.7c-.9.5-2.3.5-3.7.5-1.8 0-3.2-.5-4.6-1.8-.9-1.4-1.8-3.2-1.8-6V52h-3.2v-3.7h3.2v-4.2l4.6-1.4v5.5h5.5l.5 3.8zm25.8 18h-4.6V57.6c0-3.7-1.4-6-4.2-6-2.3 0-3.7.9-4.6 3.2v14.7H509V37.8h4.6v12.8c1.4-2.3 3.7-3.7 6.4-3.7 1.8 0 3.7.5 5.1 1.8 1.8 1.8 2.3 4.2 2.3 7.4-.6 1-.6 13.9-.6 13.9zM553 58.4v2.3h-14.3c0 2.3.9 3.7 2.3 5.1 1.4.9 2.7 1.4 4.6 1.4 2.3 0 4.2-.5 6-.9l.9 3.2c-1.8.9-4.6 1.4-7.4 1.4-3.2 0-6-.9-7.8-2.7-1.8-1.8-2.7-4.6-2.7-7.8s.9-6 2.7-8.3c1.8-2.3 4.6-3.7 7.4-3.7 3.2 0 5.5 1.4 6.9 3.7 1 1.4 1.4 3.6 1.4 6.3zm-4.6-1.3c0-1.4-.5-2.7-.9-3.7-.9-1.4-2.3-1.8-3.7-1.8s-2.7.5-3.7 1.8c-.9.9-1.4 2.3-1.4 3.7h9.7z" fill="#fff"/></svg>